<?xml version="1.0" ?><svg fill="none" height="63" viewBox="0 0 100 63" width="100" xmlns="http://www.w3.org/2000/svg"><mask fill="white" id="path-1-inside-1"><path clip-rule="evenodd" d="M0 4C0 1.79086 1.79086 0 4 0H27.7162C28.3959 0 29.0645 0.173242 29.6587 0.503371L36.1941 4.13416C36.7884 4.46428 37.4569 4.63753 38.1367 4.63753H62.9614C63.6411 4.63753 64.3097 4.46428 64.9039 4.13416L71.4393 0.503371C72.0336 0.173242 72.7021 0 73.3819 0H96C98.2091 0 100 1.79086 100 4V58.1429C100 60.352 98.2091 62.1429 96 62.1429H4C1.79086 62.1429 0 60.352 0 58.1429V4ZM35.7141 33.2142C35.7141 37.3563 32.3562 40.7142 28.2141 40.7142C24.0719 40.7142 20.7141 37.3563 20.7141 33.2142C20.7141 29.0721 24.0719 25.7142 28.2141 25.7142C32.3562 25.7142 35.7141 29.0721 35.7141 33.2142ZM72.4999 40.7143C76.642 40.7143 79.9999 37.3564 79.9999 33.2143C79.9999 29.0721 76.642 25.7143 72.4999 25.7143C68.3577 25.7143 64.9999 29.0721 64.9999 33.2143C64.9999 37.3564 68.3577 40.7143 72.4999 40.7143Z" fill-rule="evenodd"/></mask><path clip-rule="evenodd" d="M0 4C0 1.79086 1.79086 0 4 0H27.7162C28.3959 0 29.0645 0.173242 29.6587 0.503371L36.1941 4.13416C36.7884 4.46428 37.4569 4.63753 38.1367 4.63753H62.9614C63.6411 4.63753 64.3097 4.46428 64.9039 4.13416L71.4393 0.503371C72.0336 0.173242 72.7021 0 73.3819 0H96C98.2091 0 100 1.79086 100 4V58.1429C100 60.352 98.2091 62.1429 96 62.1429H4C1.79086 62.1429 0 60.352 0 58.1429V4ZM35.7141 33.2142C35.7141 37.3563 32.3562 40.7142 28.2141 40.7142C24.0719 40.7142 20.7141 37.3563 20.7141 33.2142C20.7141 29.0721 24.0719 25.7142 28.2141 25.7142C32.3562 25.7142 35.7141 29.0721 35.7141 33.2142ZM72.4999 40.7143C76.642 40.7143 79.9999 37.3564 79.9999 33.2143C79.9999 29.0721 76.642 25.7143 72.4999 25.7143C68.3577 25.7143 64.9999 29.0721 64.9999 33.2143C64.9999 37.3564 68.3577 40.7143 72.4999 40.7143Z" fill="#1D1D1D" fill-opacity="0.1" fill-rule="evenodd"/><path d="M29.6587 0.503371L30.1444 -0.370786L30.1444 -0.370786L29.6587 0.503371ZM36.1941 4.13416L36.6798 3.26L36.6798 3.26L36.1941 4.13416ZM64.9039 4.13416L64.4183 3.26L64.4183 3.26L64.9039 4.13416ZM71.4393 0.503371L70.9537 -0.370789L70.9537 -0.370786L71.4393 0.503371ZM4 -1C1.23858 -1 -1 1.23858 -1 4H1C1 2.34315 2.34315 1 4 1V-1ZM27.7162 -1H4V1H27.7162V-1ZM30.1444 -0.370786C29.4016 -0.783447 28.5659 -1 27.7162 -1V1C28.226 1 28.7274 1.12993 29.1731 1.37753L30.1444 -0.370786ZM36.6798 3.26L30.1444 -0.370786L29.1731 1.37753L35.7085 5.00831L36.6798 3.26ZM38.1367 3.63753C37.6269 3.63753 37.1255 3.5076 36.6798 3.26L35.7085 5.00831C36.4513 5.42097 37.287 5.63753 38.1367 5.63753V3.63753ZM62.9614 3.63753H38.1367V5.63753H62.9614V3.63753ZM64.4183 3.26C63.9726 3.50759 63.4712 3.63753 62.9614 3.63753V5.63753C63.8111 5.63753 64.6468 5.42097 65.3896 5.00831L64.4183 3.26ZM70.9537 -0.370786L64.4183 3.26L65.3896 5.00831L71.925 1.37753L70.9537 -0.370786ZM73.3819 -1C72.5322 -1 71.6965 -0.783447 70.9537 -0.370789L71.925 1.37753C72.3707 1.12993 72.8721 1 73.3819 1V-1ZM96 -1H73.3819V1H96V-1ZM101 4C101 1.23858 98.7614 -1 96 -1V1C97.6569 1 99 2.34315 99 4H101ZM101 58.1429V4H99V58.1429H101ZM96 63.1429C98.7614 63.1429 101 60.9043 101 58.1429H99C99 59.7997 97.6569 61.1429 96 61.1429V63.1429ZM4 63.1429H96V61.1429H4V63.1429ZM-1 58.1429C-1 60.9043 1.23858 63.1429 4 63.1429V61.1429C2.34315 61.1429 1 59.7997 1 58.1429H-1ZM-1 4V58.1429H1V4H-1ZM28.2141 41.7142C32.9085 41.7142 36.7141 37.9086 36.7141 33.2142H34.7141C34.7141 36.804 31.8039 39.7142 28.2141 39.7142V41.7142ZM19.7141 33.2142C19.7141 37.9086 23.5197 41.7142 28.2141 41.7142V39.7142C24.6242 39.7142 21.7141 36.804 21.7141 33.2142H19.7141ZM28.2141 24.7142C23.5197 24.7142 19.7141 28.5198 19.7141 33.2142H21.7141C21.7141 29.6243 24.6242 26.7142 28.2141 26.7142V24.7142ZM36.7141 33.2142C36.7141 28.5198 32.9085 24.7142 28.2141 24.7142V26.7142C31.8039 26.7142 34.7141 29.6243 34.7141 33.2142H36.7141ZM78.9999 33.2143C78.9999 36.8041 76.0897 39.7143 72.4999 39.7143V41.7143C77.1943 41.7143 80.9999 37.9087 80.9999 33.2143H78.9999ZM72.4999 26.7143C76.0897 26.7143 78.9999 29.6244 78.9999 33.2143H80.9999C80.9999 28.5198 77.1943 24.7143 72.4999 24.7143V26.7143ZM65.9999 33.2143C65.9999 29.6244 68.91 26.7143 72.4999 26.7143V24.7143C67.8055 24.7143 63.9999 28.5198 63.9999 33.2143H65.9999ZM72.4999 39.7143C68.91 39.7143 65.9999 36.8041 65.9999 33.2143H63.9999C63.9999 37.9087 67.8055 41.7143 72.4999 41.7143V39.7143Z" fill="black" mask="url(#path-1-inside-1)"/><circle cx="4.25524" cy="4.25524" fill="black" r="1.06383"/><circle cx="4.25524" cy="57.4469" fill="black" r="1.06383"/><circle cx="95.7445" cy="4.25524" fill="black" r="1.06383"/><circle cx="95.7445" cy="57.4469" fill="black" r="1.06383"/><circle cx="11.1702" cy="6.91481" fill="#C4C4C4" r="3.2234" stroke="black"/><circle cx="88.8298" cy="6.91481" fill="#C4C4C4" r="3.2234" stroke="black"/><rect fill="black" height="2.14286" width="2.14286" x="27.1426" y="25"/><rect fill="black" height="2.14286" width="2.14286" x="27.1426" y="39.2859"/><rect fill="black" height="2.14286" transform="rotate(-60 20.564 30.0349)" width="2.14286" x="20.564" y="30.0349"/><rect fill="black" height="2.14286" transform="rotate(-60 32.9355 37.178)" width="2.14286" x="32.9355" y="37.178"/><rect fill="black" height="2.14286" transform="rotate(-120 21.6357 38.249)" width="2.14286" x="21.6357" y="38.249"/><rect fill="black" height="2.14286" transform="rotate(-120 34.0073 31.1064)" width="2.14286" x="34.0073" y="31.1064"/><rect fill="black" height="2.14286" transform="rotate(-60 65.085 30.0347)" width="2.14286" x="65.085" y="30.0347"/><rect fill="black" height="2.14286" transform="rotate(-60 77.457 37.1777)" width="2.14286" x="77.457" y="37.1777"/><rect fill="black" height="2.14286" transform="rotate(-120 66.1562 38.2495)" width="2.14286" x="66.1562" y="38.2495"/><rect fill="black" height="2.14286" transform="rotate(-120 78.5283 31.1064)" width="2.14286" x="78.5283" y="31.1064"/><rect fill="black" height="2.14286" transform="rotate(-180 73.8062 41.4287)" width="2.14286" x="73.8062" y="41.4287"/><rect fill="black" height="2.14286" transform="rotate(-180 73.8062 27.1428)" width="2.14286" x="73.8062" y="27.1428"/><path clip-rule="evenodd" d="M27.6595 54.2552C38.8227 54.2552 47.8723 44.9675 47.8723 33.5106C47.8723 22.0536 38.8227 12.7659 27.6595 12.7659C16.4963 12.7659 7.44678 22.0536 7.44678 33.5106C7.44678 44.9675 16.4963 54.2552 27.6595 54.2552ZM28.2141 40.7142C32.3562 40.7142 35.7141 37.3563 35.7141 33.2142C35.7141 29.0721 32.3562 25.7142 28.2141 25.7142C24.0719 25.7142 20.7141 29.0721 20.7141 33.2142C20.7141 37.3563 24.0719 40.7142 28.2141 40.7142Z" fill="#555555" fill-rule="evenodd"/><path d="M47.3723 33.5106C47.3723 44.7037 38.5344 53.7552 27.6595 53.7552V54.7552C39.1111 54.7552 48.3723 45.2313 48.3723 33.5106H47.3723ZM27.6595 13.2659C38.5344 13.2659 47.3723 22.3174 47.3723 33.5106H48.3723C48.3723 21.7898 39.1111 12.2659 27.6595 12.2659V13.2659ZM7.94678 33.5106C7.94678 22.3174 16.7846 13.2659 27.6595 13.2659V12.2659C16.208 12.2659 6.94678 21.7898 6.94678 33.5106H7.94678ZM27.6595 53.7552C16.7846 53.7552 7.94678 44.7037 7.94678 33.5106H6.94678C6.94678 45.2313 16.208 54.7552 27.6595 54.7552V53.7552ZM35.2141 33.2142C35.2141 37.0802 32.0801 40.2142 28.2141 40.2142V41.2142C32.6324 41.2142 36.2141 37.6325 36.2141 33.2142H35.2141ZM28.2141 26.2142C32.0801 26.2142 35.2141 29.3482 35.2141 33.2142H36.2141C36.2141 28.7959 32.6324 25.2142 28.2141 25.2142V26.2142ZM21.2141 33.2142C21.2141 29.3482 24.3481 26.2142 28.2141 26.2142V25.2142C23.7958 25.2142 20.2141 28.7959 20.2141 33.2142H21.2141ZM28.2141 40.2142C24.3481 40.2142 21.2141 37.0802 21.2141 33.2142H20.2141C20.2141 37.6325 23.7958 41.2142 28.2141 41.2142V40.2142Z" fill="black"/><path clip-rule="evenodd" d="M72.8723 47.8724C81.3916 47.8724 88.2978 41.2043 88.2978 32.9788C88.2978 24.7533 81.3916 18.0852 72.8723 18.0852C64.353 18.0852 57.4468 24.7533 57.4468 32.9788C57.4468 41.2043 64.353 47.8724 72.8723 47.8724ZM72.4997 40.7142C76.6418 40.7142 79.9997 37.3563 79.9997 33.2142C79.9997 29.0721 76.6418 25.7142 72.4997 25.7142C68.3575 25.7142 64.9997 29.0721 64.9997 33.2142C64.9997 37.3563 68.3575 40.7142 72.4997 40.7142Z" fill="#555555" fill-rule="evenodd"/><path d="M87.7978 32.9788C87.7978 40.9118 81.1321 47.3724 72.8723 47.3724V48.3724C81.6511 48.3724 88.7978 41.4969 88.7978 32.9788H87.7978ZM72.8723 18.5852C81.1321 18.5852 87.7978 25.0458 87.7978 32.9788H88.7978C88.7978 24.4608 81.6511 17.5852 72.8723 17.5852V18.5852ZM57.9468 32.9788C57.9468 25.0458 64.6125 18.5852 72.8723 18.5852V17.5852C64.0936 17.5852 56.9468 24.4608 56.9468 32.9788H57.9468ZM72.8723 47.3724C64.6125 47.3724 57.9468 40.9118 57.9468 32.9788H56.9468C56.9468 41.4969 64.0936 48.3724 72.8723 48.3724V47.3724ZM79.4997 33.2142C79.4997 37.0802 76.3657 40.2142 72.4997 40.2142V41.2142C76.9179 41.2142 80.4997 37.6325 80.4997 33.2142H79.4997ZM72.4997 26.2142C76.3657 26.2142 79.4997 29.3482 79.4997 33.2142H80.4997C80.4997 28.7959 76.9179 25.2142 72.4997 25.2142V26.2142ZM65.4997 33.2142C65.4997 29.3482 68.6337 26.2142 72.4997 26.2142V25.2142C68.0814 25.2142 64.4997 28.7959 64.4997 33.2142H65.4997ZM72.4997 40.2142C68.6337 40.2142 65.4997 37.0802 65.4997 33.2142H64.4997C64.4997 37.6325 68.0814 41.2142 72.4997 41.2142V40.2142Z" fill="black"/><rect fill="#FFC7ED" height="13.8936" rx="1.5" stroke="black" width="62.8298" x="19.6489" y="10.0745"/><rect fill="black" height="1.06383" width="40.4255" x="26.5957" y="14.8936"/><rect fill="black" height="1.06383" width="40.4255" x="26.5957" y="14.8936"/><rect fill="black" height="1.06383" width="40.4255" x="26.5957" y="14.8936"/><rect fill="black" height="1.06383" width="26.5957" x="26.5957" y="18.0852"/><rect fill="black" height="1.06383" width="26.5957" x="26.5957" y="18.0852"/><rect fill="black" height="1.06383" width="26.5957" x="26.5957" y="18.0852"/></svg>