<?xml version="1.0" standalone="no"?>
<!DOCTYPE svg PUBLIC "-//W3C//DTD SVG 20010904//EN"
 "http://www.w3.org/TR/2001/REC-SVG-20010904/DTD/svg10.dtd">
<svg version="1.0" xmlns="http://www.w3.org/2000/svg"
 width="512.000000pt" height="512.000000pt" viewBox="0 0 512.000000 512.000000"
 preserveAspectRatio="xMidYMid meet">
<metadata>
Created by potrace 1.16, written by Peter Selinger 2001-2019
</metadata>
<g transform="translate(0.000000,512.000000) scale(0.100000,-0.100000)"
fill="#000000" stroke="none">
<path d="M2002 3719 c-43 -54 -108 -83 -197 -89 l-80 -5 -3 -38 -3 -37 -352 0
c-337 1 -447 -6 -471 -30 -6 -6 -26 -10 -47 -10 -20 0 -61 -5 -90 -11 -108
-23 -102 -28 -115 88 -15 122 -24 143 -64 143 -32 0 -37 -10 -77 -180 l-18
-75 -117 -3 c-136 -3 -123 10 -133 -133 -5 -71 -3 -88 10 -99 12 -10 57 -12
210 -7 107 4 198 7 202 8 41 7 323 -3 323 -11 0 -6 -33 -10 -80 -10 l-80 0 0
-30 0 -30 -236 0 -235 0 3 -32 3 -33 678 -3 c606 -3 678 -2 683 12 5 12 22 16
74 16 60 0 69 -3 75 -20 5 -17 15 -20 66 -20 44 0 59 -4 59 -14 0 -24 -70
-217 -110 -302 -20 -45 -57 -110 -80 -145 -56 -83 -200 -226 -237 -235 -43
-10 -173 -73 -173 -83 0 -13 139 -273 155 -290 11 -11 27 -5 100 39 215 130
366 293 485 523 19 37 38 67 41 67 4 0 9 -11 11 -24 4 -18 0 -26 -14 -30 -13
-3 -18 -11 -16 -23 3 -15 14 -18 68 -19 77 -1 122 15 146 51 22 34 29 22 38
-65 11 -95 78 -347 129 -485 51 -137 57 -166 39 -188 -12 -14 -5 -20 58 -51
40 -20 77 -33 84 -29 15 9 329 225 339 233 4 4 -16 60 -44 126 -85 198 -149
416 -174 595 l-7 47 104 5 c56 3 114 8 129 12 24 6 26 4 68 -120 l42 -126 -21
-35 c-42 -67 -15 -76 135 -45 133 27 235 60 242 77 3 8 -35 97 -86 198 -50
101 -91 188 -91 195 0 6 10 27 22 46 22 32 27 34 94 40 70 7 114 -3 114 -25 0
-6 62 -10 155 -10 l155 0 67 -57 c38 -32 126 -106 196 -166 71 -60 143 -113
160 -118 48 -14 481 -11 512 3 l25 11 0 317 c0 232 -3 319 -12 328 -9 9 -123
12 -452 12 l-439 0 -36 -27 c-29 -22 -49 -28 -101 -31 -103 -6 -138 8 -228 93
-69 64 -85 75 -116 75 -39 0 -56 20 -56 63 0 17 -14 38 -45 65 -25 22 -45 48
-45 57 0 10 -20 38 -45 61 l-45 43 -79 -2 c-44 -1 -83 -6 -87 -10 -4 -4 -13
-2 -21 4 -9 9 -17 8 -27 0 -8 -7 -17 -8 -20 -3 -7 11 -116 10 -134 -2 -6 -4
-12 -3 -12 2 0 11 -120 10 -137 -1 -6 -4 -13 -1 -16 5 -3 11 -9 11 -26 0 -11
-7 -21 -8 -21 -4 0 5 -29 9 -65 9 -36 0 -65 -4 -65 -9 0 -4 -9 -3 -20 4 -17
11 -22 10 -30 -2 -8 -12 -10 -12 -10 -1 0 9 -8 11 -24 7 -16 -4 -29 0 -41 14
-17 19 -31 20 -194 19 l-176 0 -23 -30z m228 -49 c17 -22 34 -39 38 -39 4 1
233 1 510 0 442 -1 502 -3 502 -16 0 -14 -58 -15 -491 -14 -449 2 -492 1 -501
-14 -13 -24 -173 -25 -200 0 -23 21 -23 26 8 79 23 40 29 44 64 44 33 0 43 -6
70 -40z m-1630 8 c0 -7 3 -23 6 -35 5 -20 2 -23 -20 -23 -27 0 -34 19 -20 54
7 19 34 22 34 4z m2590 1 c0 -8 -100 -9 -367 -4 -203 4 -370 9 -372 11 -2 2
163 4 367 4 267 0 372 -3 372 -11z m-1232 -64 c-2 -1 -19 -5 -38 -8 -31 -6
-33 -5 -17 7 10 8 27 12 38 9 11 -3 18 -7 17 -8z m-173 -25 c3 -5 -1 -10 -9
-10 -9 0 -16 5 -16 10 0 6 4 10 9 10 6 0 13 -4 16 -10z m95 6 c0 -2 3 -11 6
-20 4 -11 1 -16 -10 -16 -9 0 -16 2 -16 4 0 2 -3 11 -6 20 -4 11 -1 16 10 16
9 0 16 -2 16 -4z m-1263 -53 c-3 -10 -5 -2 -5 17 0 19 2 27 5 18 2 -10 2 -26
0 -35z m-80 -5 c-3 -8 -6 -5 -6 6 -1 11 2 17 5 13 3 -3 4 -12 1 -19z m2543 15
c0 -5 -108 -7 -241 -5 -209 3 -244 1 -266 -13 -24 -16 -24 -16 -13 4 10 20 18
21 265 21 140 0 255 -3 255 -7z m261 -24 c29 -23 39 -38 39 -60 0 -16 -4 -29
-10 -29 -5 0 -10 12 -10 26 0 18 -12 38 -37 60 -46 42 -34 44 18 3z m-1451
-185 c0 -121 -3 -183 -10 -179 -6 4 -10 77 -10 186 0 113 4 179 10 179 6 0 10
-69 10 -186z m-192 154 l-3 -23 -250 -3 c-137 -1 -260 0 -272 3 -14 3 -23 13
-23 25 0 19 8 20 276 20 l275 0 -3 -22z m67 -34 l0 -49 -307 -3 c-268 -2 -308
0 -308 13 0 13 40 15 293 17 l292 3 3 38 c5 57 27 41 27 -19z m1526 37 c4 -3
10 -21 14 -39 l7 -32 -669 6 -670 7 -16 -24 c-12 -16 -17 -44 -17 -91 l0 -68
673 0 c409 0 678 -4 687 -10 11 -7 16 -4 20 13 4 16 14 23 37 25 26 3 33 8 36
30 4 24 4 24 6 -5 1 -28 -2 -33 -23 -33 -24 0 -53 -24 -39 -33 4 -3 23 -8 41
-12 17 -3 32 -11 32 -16 0 -11 -1 -11 -80 6 -53 12 -190 14 -722 15 l-657 0
-6 -21 c-4 -12 -2 -26 3 -31 7 -7 79 -9 201 -6 105 2 191 0 191 -4 0 -4 -94
-8 -210 -8 l-210 0 0 173 0 173 683 -4 c375 -2 685 -7 688 -11z m-2671 -1 c0
-5 -20 -10 -45 -10 -25 0 -45 5 -45 10 0 6 20 10 45 10 25 0 45 -4 45 -10z
m360 -35 c0 -25 -4 -45 -10 -45 -5 0 -10 16 -10 35 0 47 -20 45 -21 -2 l-2
-38 -6 40 c-5 37 -4 41 19 46 14 4 26 7 28 8 1 0 2 -19 2 -44z m60 10 c0 -19
-4 -35 -10 -35 -5 0 -10 16 -10 35 0 19 5 35 10 35 6 0 10 -16 10 -35z m64 8
c-10 -40 -14 -41 -14 -5 0 18 5 32 10 32 6 0 8 -11 4 -27z m-204 -28 c0 -12
-16 -15 -80 -15 -73 0 -91 6 -73 23 3 4 39 7 80 7 58 0 73 -3 73 -15z m-270
-17 c0 -9 -18 -13 -55 -13 -70 0 -72 13 -2 18 28 2 53 4 55 5 1 1 2 -4 2 -10z
m50 -13 c0 -14 -4 -25 -9 -25 -10 0 -21 36 -13 44 12 13 22 5 22 -19z m-190
-10 c0 -14 -2 -25 -4 -25 -2 0 -6 11 -8 25 -3 14 -1 25 3 25 5 0 9 -11 9 -25z
m-140 5 c0 -5 -15 -10 -34 -10 -19 0 -38 5 -41 10 -4 6 10 10 34 10 23 0 41
-4 41 -10z m80 0 c0 -5 -9 -10 -19 -10 -11 0 -23 5 -26 10 -4 6 5 10 19 10 14
0 26 -4 26 -10z m1793 -47 c-3 -21 -7 -40 -9 -42 -2 -2 -54 -3 -115 -3 -82 0
-114 4 -120 14 -13 20 -11 35 7 52 12 13 39 16 129 16 l114 0 -6 -37z m582 13
c17 -26 9 -59 -17 -68 -7 -2 -74 -1 -148 3 -74 4 -185 8 -247 8 -100 1 -113 3
-123 20 -13 25 -13 27 6 45 13 14 51 16 264 16 l250 0 15 -24z m571 -21 l-39
-35 -251 2 -251 2 240 6 c242 5 275 10 289 45 3 8 16 15 28 15 21 -1 19 -4
-16 -35z m-1596 5 c0 -6 -98 -10 -275 -10 l-275 0 0 -85 0 -85 205 0 205 0 0
70 c0 42 4 70 10 70 7 0 10 -29 8 -77 l-3 -78 -220 0 -220 0 -3 89 c-2 49 -1
95 2 103 4 10 62 13 286 13 180 0 280 -4 280 -10z m1790 -56 c24 -27 24 -27
-16 4 -22 17 -47 39 -55 49 -22 27 41 -20 71 -53z m-2407 4 c-6 -18 -11 -25
-12 -15 -1 21 -31 23 -31 2 0 -8 -7 -15 -16 -15 -10 0 -14 6 -10 15 3 9 0 15
-9 15 -9 0 -12 -6 -9 -15 5 -11 -1 -15 -25 -15 -24 0 -31 4 -31 20 0 11 -6 20
-14 20 -7 0 -16 -9 -19 -20 -5 -18 -14 -20 -92 -20 -84 0 -86 1 -83 23 3 22 4
22 171 20 165 -2 167 -2 167 19 0 17 3 19 12 10 8 -8 8 -20 1 -44z m-493 7 c0
-19 -4 -35 -10 -35 -5 0 -10 16 -10 35 0 19 5 35 10 35 6 0 10 -16 10 -35z
m50 -5 c0 -11 -4 -20 -10 -20 -5 0 -10 9 -10 20 0 11 5 20 10 20 6 0 10 -9 10
-20z m59 13 c0 -5 -4 -17 -9 -28 -8 -18 -9 -17 -9 8 -1 15 4 27 9 27 6 0 10
-3 9 -7z m-269 -18 c0 -12 -19 -15 -115 -15 -96 0 -115 3 -115 15 0 12 19 15
115 15 96 0 115 -3 115 -15z m120 5 c0 -5 -13 -10 -30 -10 -16 0 -30 5 -30 10
0 6 14 10 30 10 17 0 30 -4 30 -10z m650 -50 c0 -27 -4 -50 -10 -50 -5 0 -10
23 -10 50 0 28 5 50 10 50 6 0 10 -22 10 -50z m3518 -264 c1 -180 -1 -283 -8
-290 -7 -7 -10 81 -10 272 0 155 -1 283 -2 284 -2 1 -176 5 -388 8 l-385 6
395 -1 395 0 3 -279z m-3725 227 c-13 -2 -35 -2 -50 0 -16 2 -5 4 22 4 28 0
40 -2 28 -4z m80 0 c-7 -2 -21 -2 -30 0 -10 3 -4 5 12 5 17 0 24 -2 18 -5z
m3427 -13 c0 -6 -78 -10 -214 -10 -133 0 -217 4 -221 10 -4 7 70 10 214 10
141 0 221 -4 221 -10z m-1032 -12 c14 -14 16 -48 3 -48 -5 0 -11 9 -14 20 -9
36 -67 19 -67 -21 0 -23 18 -35 62 -43 32 -6 37 -4 32 9 -5 13 13 15 150 15
97 0 156 -4 156 -10 0 -6 -52 -10 -135 -10 -116 0 -142 -3 -175 -20 -51 -26
-66 -25 -95 5 -30 29 -32 68 -5 95 22 22 69 27 88 8z m-2418 -19 c0 -6 7 -9
15 -5 9 3 15 0 15 -9 0 -13 -25 -15 -155 -15 -130 0 -155 2 -155 15 0 12 23
15 128 18 70 1 133 4 140 5 6 1 12 -3 12 -9z m3448 -15 c21 -15 22 -20 20
-187 l-2 -172 -3 164 c-2 100 -8 170 -14 178 -9 10 -61 13 -230 13 -139 0
-219 4 -219 10 0 6 78 10 213 10 176 0 216 -3 235 -16z m-2781 -1 c-20 -2 -52
-2 -70 0 -17 2 0 4 38 4 39 0 53 -2 32 -4z m1023 -23 c0 -6 -71 -10 -194 -10
-119 0 -197 4 -201 10 -4 7 63 10 194 10 127 0 201 -4 201 -10z m-450 -10 c0
-5 -22 -10 -49 -10 -35 0 -51 -4 -55 -16 -9 -23 -7 -154 2 -154 4 1 20 17 35
38 28 36 28 37 8 40 -28 4 -16 22 14 22 40 0 38 -17 -10 -67 l-47 -48 44 -3
c60 -5 74 -22 17 -22 -74 0 -80 10 -77 120 l3 95 50 6 c28 3 53 7 58 7 4 1 7
-2 7 -8z m2300 -50 c0 -27 -4 -50 -10 -50 -5 0 -10 23 -10 50 0 28 5 50 10 50
6 0 10 -22 10 -50z m60 -145 c0 -123 -4 -195 -10 -195 -6 0 -10 64 -10 173 0
155 5 217 16 217 2 0 4 -88 4 -195z m-1440 153 c0 -7 -5 -6 -15 2 -20 17 -45
5 -45 -20 0 -25 25 -37 45 -20 12 10 15 10 15 -3 0 -24 -39 -28 -61 -6 -24 24
-24 34 1 59 16 16 25 18 40 10 11 -6 20 -16 20 -22z m-1085 -30 c16 -14 -11
-9 -70 13 -30 11 -55 24 -55 29 0 10 107 -27 125 -42z m2165 21 c-14 -47 2
-69 50 -69 38 0 39 -1 42 -37 2 -31 7 -39 26 -41 21 -3 22 -8 22 -93 l0 -89
-42 0 c-24 0 -55 8 -70 18 -62 41 -289 249 -295 269 -3 14 2 34 11 48 16 24
19 25 141 25 l124 0 -9 -31z m-1570 11 c0 -6 -70 -10 -190 -10 l-190 0 0 -170
c0 -107 -4 -170 -10 -170 -11 0 -14 342 -3 353 11 11 393 8 393 -3z m350 -50
c0 -5 -25 -10 -55 -10 -30 0 -55 5 -55 10 0 6 25 10 55 10 30 0 55 -4 55 -10z
m180 0 c0 -5 -7 -10 -16 -10 -8 0 -12 5 -9 10 3 6 10 10 16 10 5 0 9 -4 9 -10z
m-850 -4 c0 -11 -19 -15 -25 -6 -3 5 1 10 9 10 9 0 16 -2 16 -4z m220 -30 l0
-34 -63 -7 c-92 -10 -121 -5 -125 23 -7 48 1 52 98 52 l90 0 0 -34z m99 7 c-1
-17 -3 -21 -6 -10 -2 9 -14 17 -26 17 -12 0 -29 5 -37 10 -11 7 -4 10 28 10
40 0 42 -2 41 -27z m-655 -24 c31 -12 53 -25 51 -30 -5 -7 -120 33 -133 46
-12 12 30 3 82 -16z m2100 -134 c63 -54 113 -101 111 -103 -5 -6 -41 22 -177
141 -64 56 -117 106 -117 110 -1 10 17 -5 183 -148z m-2210 126 c9 -14 -48
-179 -89 -263 -60 -119 -141 -233 -226 -317 -44 -44 -75 -82 -70 -85 14 -9 84
-137 78 -142 -3 -3 -24 29 -47 70 -23 42 -45 76 -49 76 -5 0 -14 -7 -21 -15
-12 -15 -50 -21 -50 -9 0 4 41 45 92 93 154 145 257 306 333 524 26 73 37 88
49 68z m723 -43 c-2 -13 -4 -5 -4 17 -1 22 1 32 4 23 2 -10 2 -28 0 -40z
m1900 -165 c-2 -38 -3 -7 -3 67 0 74 1 105 3 68 2 -38 2 -98 0 -135z m-1697
136 c0 -9 -9 -28 -21 -43 -17 -21 -18 -26 -5 -26 9 0 26 10 37 21 17 17 20 29
16 61 -4 27 -2 38 6 35 31 -10 47 -89 27 -128 -9 -16 -22 -19 -74 -19 l-64 0
11 35 c7 25 7 45 0 69 -10 33 -10 35 16 38 28 4 51 -15 51 -43z m-107 -31 c2
-38 1 -68 -4 -68 -5 0 -9 32 -9 72 0 88 6 86 13 -4z m314 65 c-41 -3 -56 -7
-50 -16 4 -7 0 -7 -10 2 -9 7 -17 14 -17 16 0 1 30 2 68 2 66 -1 66 -1 9 -4z
m127 -108 c9 -21 14 -40 11 -43 -3 -3 -5 0 -5 7 0 8 -9 7 -31 -4 -25 -13 -28
-19 -18 -31 12 -15 48 -10 60 7 3 5 15 -12 28 -39 22 -45 22 -46 2 -28 -11 10
-19 23 -18 30 1 7 -13 10 -40 8 -24 -2 -43 1 -43 7 0 5 -3 16 -6 25 -4 10 5
20 25 31 31 16 31 16 16 51 -8 20 -15 51 -14 68 1 28 2 27 9 -10 5 -22 16 -58
24 -79z m82 -64 c30 -63 53 -116 51 -118 -2 -1 -29 50 -60 115 -39 81 -56 130
-55 153 l1 34 4 -35 c2 -19 29 -86 59 -149z m-1302 88 c-40 -111 -106 -248
-154 -320 -55 -82 -142 -182 -183 -211 -18 -12 2 14 44 58 42 44 95 109 119
144 48 71 138 257 165 340 20 62 25 73 31 67 3 -2 -7 -37 -22 -78z m1125 -101
c28 -71 53 -142 56 -156 6 -28 -21 35 -73 177 -18 46 -39 96 -49 110 -14 23
-15 24 0 13 9 -8 39 -72 66 -144z m-998 97 c24 -8 17 -19 -13 -20 -16 0 -26
-15 -47 -75 -76 -206 -214 -415 -348 -524 -34 -28 -22 -13 39 52 145 151 260
346 320 541 14 47 24 68 26 54 2 -12 12 -25 23 -28z m159 -46 c0 -60 -1 -61
-25 -57 -22 5 -24 2 -20 -21 l5 -26 -12 28 c-7 15 -15 27 -20 27 -4 0 -8 25
-8 55 l0 55 40 0 40 0 0 -61z m-105 31 c3 -5 -1 -10 -9 -10 -9 0 -16 5 -16 10
0 6 4 10 9 10 6 0 13 -4 16 -10z m25 -136 c10 -12 24 -15 52 -11 35 5 38 3 38
-20 0 -15 -13 -38 -34 -59 -30 -30 -40 -34 -85 -34 -45 0 -50 2 -42 18 23 46
34 91 33 127 -2 57 10 78 18 33 4 -20 13 -44 20 -54z m490 14 c19 -115 67
-298 110 -420 22 -61 38 -113 36 -115 -6 -6 -62 135 -90 228 -47 157 -89 379
-72 379 2 0 10 -33 16 -72z m-45 52 c-3 -5 -33 -15 -65 -22 -52 -10 -60 -15
-60 -35 0 -41 22 -173 29 -173 4 0 29 7 54 16 53 18 50 4 28 127 -5 26 -5 47
0 47 5 0 9 -1 9 -3 0 -2 9 -54 20 -117 12 -62 19 -113 18 -114 -2 -1 -29 -10
-60 -20 -52 -15 -77 -36 -45 -36 9 0 9 -2 0 -8 -10 -6 -2 -40 32 -142 24 -73
47 -135 49 -137 5 -6 94 45 102 58 3 5 -8 44 -24 87 -34 89 -55 159 -43 146 5
-5 27 -60 51 -123 28 -76 38 -117 32 -123 -6 -6 -55 -37 -109 -68 l-98 -58
-12 26 c-21 47 -61 184 -83 284 -28 128 -49 342 -35 346 5 1 55 13 110 26 55
13 101 24 103 25 2 1 0 -3 -3 -9z m563 -57 c-26 -6 -22 -22 7 -33 30 -11 33
-20 5 -13 -41 11 -51 55 -12 52 15 -1 15 -2 0 -6z m-808 -98 c22 -183 72 -389
136 -560 5 -14 4 -17 -3 -10 -44 42 -153 488 -153 623 0 68 8 48 20 -53z m900
13 c0 -30 -34 -73 -50 -63 -6 4 -9 16 -9 28 1 17 2 18 6 5 2 -10 11 -18 19
-18 10 0 14 14 14 53 0 37 3 48 10 37 5 -8 10 -27 10 -42z m67 -42 c-3 -8 -16
-20 -29 -27 l-23 -12 23 26 c17 18 22 32 18 49 -6 23 -6 23 5 1 6 -12 9 -29 6
-37z m-153 6 c-4 -20 0 -33 16 -47 18 -16 25 -17 53 -7 29 10 30 10 13 -3 -27
-20 -52 -19 -76 5 -21 21 -24 37 -14 64 10 25 14 19 8 -12z m-554 -126 c-14
-7 -36 -16 -50 -20 -14 -3 -7 3 15 14 45 22 74 27 35 6z m-1240 -181 c0 -16
-6 -25 -16 -25 -9 0 -14 -3 -12 -7 2 -5 20 -41 41 -80 20 -40 35 -73 33 -73
-2 0 -26 40 -53 88 -49 87 -49 88 -29 104 29 23 36 22 36 -7z m140 -135 c6
-11 8 -20 6 -20 -3 0 -10 9 -16 20 -6 11 -8 20 -6 20 3 0 10 -9 16 -20z m1310
-135 c0 -4 -230 -164 -260 -180 -37 -20 10 15 128 97 131 90 132 91 132 83z"/>
<path d="M2106 3659 c-36 -62 -29 -69 75 -69 49 0 89 3 89 8 0 4 -20 28 -45
55 -58 61 -85 63 -119 6z m94 -39 c0 -5 -16 -10 -35 -10 -19 0 -35 5 -35 10 0
6 16 10 35 10 19 0 35 -4 35 -10z"/>
<path d="M1950 3475 c0 -8 9 -15 20 -15 11 0 20 7 20 15 0 8 -9 15 -20 15 -11
0 -20 -7 -20 -15z"/>
<path d="M2020 3470 c0 -6 57 -10 150 -10 93 0 150 4 150 10 0 6 -57 10 -150
10 -93 0 -150 -4 -150 -10z"/>
<path d="M2000 3365 l0 -25 100 0 100 0 0 25 0 25 -100 0 -100 0 0 -25z"/>
<path d="M2373 3392 c-53 -2 -73 -7 -77 -18 -3 -9 -4 -20 0 -25 3 -5 110 -9
240 -9 204 0 235 2 241 16 12 33 -14 39 -175 39 -86 0 -189 -1 -229 -3z"/>
<path d="M2530 3010 c0 -17 7 -20 49 -20 40 0 50 3 54 20 5 18 0 20 -49 20
-47 0 -54 -2 -54 -20z"/>
<path d="M2650 3010 c0 -11 7 -20 15 -20 8 0 15 9 15 20 0 11 -7 20 -15 20 -8
0 -15 -9 -15 -20z"/>
<path d="M2307 2843 c-13 -12 -7 -33 8 -33 8 0 15 9 15 20 0 20 -11 26 -23 13z"/>
<path d="M2537 2733 c-16 -4 -18 -12 -12 -71 17 -172 70 -420 110 -515 15 -37
16 -37 45 -22 16 8 31 18 34 23 2 4 -11 52 -31 107 -19 55 -43 141 -54 190
-24 106 -49 277 -42 288 4 7 -20 8 -50 0z"/>
<path d="M2685 2548 c-27 -9 -50 -21 -49 -27 4 -40 2 -40 52 -21 42 16 60 36
50 58 -2 4 -25 0 -53 -10z"/>
</g>
</svg>