<?xml version="1.0" encoding="UTF-8"?>
<svg width="185px" height="194px" viewBox="0 0 185 194" version="1.1" xmlns="http://www.w3.org/2000/svg" xmlns:xlink="http://www.w3.org/1999/xlink">
    <title>logo</title>
    <g id="页面-1" stroke="none" stroke-width="1" fill="none" fill-rule="evenodd">
        <rect id="矩形" x="0" y="0" width="185" height="194" rx="10"></rect>
        <g id="sui" transform="translate(69.5, 62.5) rotate(7) translate(-69.5, -62.5)translate(34, 17)" fill="#F7F7F8">
            <path d="M56.8092261,37.9525614 L56.8077136,37.9566058 C60.5099944,42.6117614 62.7224897,48.5075503 62.7224897,54.9205225 C62.7224897,61.4285391 60.4436977,67.4044586 56.6415937,72.0912114 L56.3141434,72.4946447 L56.2274283,71.9817586 C56.1535692,71.5457169 56.0668541,71.105378 55.9660226,70.6615003 C54.0633321,62.2778725 47.863707,55.0888725 37.6598108,49.2681586 C30.7694899,45.3480808 26.8254656,40.6282141 25.7899261,35.2652808 C25.1211107,31.7974225 25.6182604,28.3141447 26.5791847,25.3306086 C27.5398568,22.3481594 28.9686393,19.8492994 30.1826506,18.3448419 L30.1834068,18.3438814 L34.152639,13.4768475 C34.8488806,12.623318 36.1513715,12.623318 36.8476131,13.4768475 L56.8092261,37.9525614 Z M63.0874997,33.090128 L63.088256,33.0881058 L36.4836113,0.467138642 C35.9754205,-0.155712628 35.0245795,-0.155713133 34.5166407,0.467138642 L7.91149195,33.0886114 L7.91219777,33.0903808 L7.82563392,33.1980641 C2.92981062,39.2902614 0,47.0320864 0,55.4599503 C0,75.0878919 15.8935155,91 35.5,91 C55.106434,91 71,75.0878919 71,55.4599503 C71,47.0323391 68.0700885,39.2902614 63.1744669,33.1980641 L63.0874997,33.090128 Z M14.2772621,37.8476586 L14.2783209,37.8461419 L16.6579948,34.928328 L16.7299129,35.4669975 C16.7868827,35.8936864 16.8559523,36.3226503 16.9378779,36.7533836 C18.4776001,44.8544058 23.9779335,51.6093864 33.1740693,56.8408753 C41.1674868,61.4027558 45.821617,66.6489058 47.162676,72.4023808 C47.7220388,74.8035169 47.821862,77.165978 47.5796143,79.2314253 L47.5644896,79.359078 L47.4492896,79.4157003 C43.8412862,81.1831225 39.785591,82.1750225 35.4992438,82.1750225 C20.4645606,82.1750225 8.27594743,69.9731864 8.27594743,54.9205225 C8.27594743,48.457753 10.5228515,42.5192447 14.2772621,37.8476586 Z" id="形状"></path>
        </g>
        <g id="sui" transform="translate(134, 99.5) rotate(-8) translate(-134, -99.5)translate(116, 76)" fill="#F7F7F8">
            <path d="M28.804678,19.6018724 L28.8039111,19.6039612 C30.6811239,22.0082724 31.8029525,25.0533501 31.8029525,28.3655446 C31.8029525,31.7268279 30.6475087,34.8132918 28.7196813,37.2339224 L28.5536502,37.442289 L28.509682,37.1773918 C28.4722323,36.9521835 28.4282641,36.7247557 28.3771382,36.4955001 C27.4123938,32.1654946 24.2689219,28.4524946 19.0951154,25.4461918 C15.6014315,23.4215362 13.6016445,20.9838029 13.0765822,18.2139362 C12.7374646,16.4228446 12.9895405,14.623789 13.4767697,13.0828418 C13.9638711,11.542456 14.6883241,10.251836 15.3038792,9.47480846 L15.3042626,9.47431235 L17.3168311,6.96056958 C17.6698549,6.51973569 18.3302729,6.51973569 18.6832968,6.96056958 L28.804678,19.6018724 Z M31.988028,17.0905057 L31.9884115,17.0894612 L18.4987325,0.241269408 C18.2410583,-0.0804230056 17.7589417,-0.0804232667 17.5013953,0.241269408 L4.01146071,17.0897224 L4.01181859,17.0906362 L3.96792706,17.1462529 C1.48553778,20.2927724 0,24.2912974 0,28.6441501 C0,38.7816585 8.05868394,47 18,47 C27.9412905,47 36,38.7816585 36,28.6441501 C36,24.2914279 34.5144111,20.2927724 32.0321241,17.1462529 L31.988028,17.0905057 Z M7.23917517,19.5476918 L7.23971199,19.5469085 L8.44630722,18.0399057 L8.48277272,18.3181196 C8.51165882,18.5384974 8.54668002,18.7600501 8.58821976,18.9825168 C9.36892401,23.1665612 12.1578254,26.6553974 16.8206548,29.3573751 C20.8736553,31.7135112 23.2334959,34.4230612 23.9134695,37.3946362 C24.1970901,38.6347835 24.2477047,39.8549557 24.1248748,40.9217251 L24.117206,40.9876557 L24.0587947,41.0169001 C22.2293846,41.9297446 20.1729757,42.4420446 17.9996166,42.4420446 C10.3763969,42.4420446 4.19625503,36.1399974 4.19625503,28.3655446 C4.19625503,25.0276307 5.33553032,21.960489 7.23917517,19.5476918 Z" id="形状"></path>
        </g>
        <g id="小区活动mdpi" fill-rule="nonzero">
            <path d="M184.905395,95.2784758 C184.905395,62.8583108 162.010995,36.5257752 133.913321,36.5257754 C127.371635,36.5506676 120.914273,38.0001476 114.992329,40.7729584 C105.342623,16.799969 84.4349272,0 60.1214523,0 C26.9624137,0 0,31.14601 0,69.4178495 C0,102.451496 19.9616465,129.916614 46.5929431,137.042444 L41.6261825,151.766012 L55.060087,151.766012 L53.3571978,158.231169 C52.2825099,162.256864 53.3541412,166.551098 56.1953465,169.604181 C57.4762275,170.961197 57.7073633,172.998081 56.7629762,174.606419 L49.052672,188.244596 C48.1565361,190.154594 48.8760363,192.431056 50.7082588,193.482789 C52.6677267,194.576288 55.1447106,193.8793 56.2426489,191.925489 L63.9529533,178.287312 C66.5168673,173.705384 65.8496758,168.000086 62.2973665,164.130034 C61.447576,163.105416 61.1478887,161.733623 61.4932244,160.449142 L63.7637433,151.907585 L78.8532344,151.907585 L73.6499616,136.85368 C80.1595835,135.106631 86.2977934,132.196658 91.7668116,128.264932 C98.8153715,140.805906 110.837156,149.80098 124.878548,153.040167 L122.560726,159.83566 L130.365635,159.83566 L129.939913,161.487343 C129.080681,164.810415 130.032394,168.339569 132.446945,170.783955 C132.865217,171.3614 132.865217,172.141337 132.446945,172.718782 L127.007159,182.156967 C125.99273,184.102246 126.710605,186.499639 128.62835,187.571043 C130.546095,188.642448 132.970103,188.00036 134.102531,186.121005 L139.495014,176.68282 C141.658503,172.983062 141.1398,168.306586 138.217847,165.168235 C137.829509,164.749658 137.670567,164.168246 137.792125,163.610934 L138.785477,159.882851 L144.698287,159.882851 L142.427768,153.134549 C166.50473,148.415457 185,124.253703 185,95.1369032 L184.905395,95.2784758 Z M52.9314754,143.649173 L54.4924572,138.930081 L65.6558426,138.930081 L67.2168244,143.649173 L52.9314754,143.649173 Z M88.0299156,121.091912 C80.0103263,127.195004 70.2079512,130.510007 60.1214523,130.530096 C31.4561494,130.530096 8.08872415,103.017787 8.08872415,69.1818948 C8.08872415,35.3460021 31.4088469,7.83369343 60.1214523,7.83369343 C81.3602658,7.83369343 99.7136282,22.9347892 107.75505,44.5482324 C108.747554,47.2308698 109.569101,49.9734111 110.214779,52.7594533 C111.477887,58.1265444 112.112828,63.6216688 112.106878,69.1347039 C112.44953,86.2077948 106.180819,102.755347 94.6049603,115.334619 C92.6029153,117.409445 90.4356805,119.319058 88.1245207,121.04472 L88.0299156,121.091912 Z M133.866019,146.008719 C118.642992,145.495859 104.91314,136.738162 98.0580414,123.168312 C112.496805,109.007681 120.496205,89.5679169 120.195602,69.3706586 C120.204075,62.2936203 119.265503,55.247125 117.404756,48.4178883 C122.515733,45.868974 128.15202,44.5440156 133.866019,44.5482223 C157.517259,44.5482223 176.769369,67.2942578 176.769369,95.2784758 C176.769369,123.262694 157.517259,146.008719 133.866019,146.008719 Z" id="形状" fill="#3295FC"></path>
            <path d="M56.0539982,25.1608191 C56.9988861,27.1709675 56.1323375,29.5607539 54.113075,30.5135387 C41.1934499,36.5329485 31.8941559,48.2450365 29.0230925,62.1133656 C28.6410292,63.9926348 26.9794068,65.3464122 25.0465669,65.3531695 L24.2417939,65.3531695 C22.0723818,64.9050306 20.6627522,62.8182568 21.0700413,60.6578014 C24.4892998,44.2864106 35.4884874,30.4711614 50.7519642,23.3765792 C52.7651241,22.4430344 55.1601201,23.3049314 56.1013377,25.3016801 L56.0539982,25.1608191 Z M162,116.157052 C159.853847,124.145414 154.026019,130.656979 146.283256,133.717728 C145.802729,133.91236 145.287365,134.008203 144.768389,133.99945 C142.809184,134.00947 141.120647,132.633957 140.749792,130.725828 C140.378937,128.817699 141.430956,126.918193 143.253522,126.205139 C148.615846,124.084868 152.652708,119.576068 154.141628,114.044136 C154.718858,112.006338 156.784639,110.756484 158.875587,111.179962 C161.049765,111.774893 162.337084,113.993638 161.763302,116.157052 L162,116.157052 Z" id="形状" fill="#F8AD4B"></path>
            <path d="M52.6955129,194 C51.9847079,194 51.2854457,193.820756 50.6615169,193.481283 C49.7081956,192.955615 49.0062116,192.070711 48.7127975,191.024776 C48.4193835,189.978841 48.5590604,188.859285 49.100543,187.916869 L56.7635053,174.477394 C57.5704641,172.939709 57.3448601,171.065486 56.1958784,169.761789 C53.3627939,166.706593 52.2922766,162.419971 53.3577444,158.39718 L55.0606248,151.936801 L41.6267897,151.936801 L46.6408268,136.752552 C39.9753724,134.949053 33.7039424,131.926963 28.1456525,127.840058 C22.4168535,123.628133 17.4295612,118.496898 13.3873549,112.655809 C9.0992703,106.584321 5.7803111,99.8873809 3.54848962,92.8031114 C1.17103261,85.169135 -0.025262888,77.2184785 0.000404402768,69.225085 C0.000404402768,31.1229947 26.9630965,0 60.121964,0 C72.1182052,0.0212557647 83.7666832,4.01926649 93.2335292,11.3646087 C98.0473725,15.0379734 102.315379,19.3721705 105.910529,24.2382109 C109.666397,29.2999165 112.735992,34.8334807 115.03986,40.6956733 C120.959778,37.9191116 127.418412,36.4704099 133.960755,36.4516287 C162.105585,36.4516287 184.999934,62.811862 184.999934,95.2080699 C185.009816,102.221246 183.908286,109.191957 181.736013,115.862421 C181.121084,117.748663 180.41155,119.587749 179.607412,121.379679 C183.137784,113.088427 184.940245,104.168148 184.905263,95.1609139 C184.905263,62.7647058 162.010981,36.4516285 133.913452,36.4516287 C127.370764,36.4673433 120.911471,37.9161928 114.992558,40.6956733 C105.059088,16.0330578 83.5838732,0 60.121964,0 C27.0103988,0 0.000404402768,31.1701507 0.000404402768,69.3665532 C0.000404402768,101.291201 19.6785523,129.679144 46.6408268,136.752552 L41.7213942,151.606709 L55.1552292,151.606709 L53.4523488,158.067088 C52.3683611,162.089728 53.4411109,166.38529 56.2904828,169.431697 C57.563898,170.818174 57.7571609,172.879696 56.7635053,174.477394 L49.1951475,187.964025 C48.6733517,188.897603 48.5375826,189.997318 48.8167296,191.029169 C49.1105232,192.059208 49.8101412,192.926775 50.7561213,193.434127 C51.3637382,193.771631 52.0472528,193.950094 52.7428152,193.952844 C54.190727,193.954566 55.5277424,193.180052 56.2431806,191.925134 L63.9534452,178.297035 C66.5173459,173.718492 65.8501578,168.017411 62.297867,164.150219 C61.4005897,163.093786 61.0982127,161.6575 61.493729,160.330579 L63.7642362,151.795333 L78.8536495,151.795333 L73.6504035,136.752552 C80.1603551,135.007777 86.2987048,132.099873 91.76716,128.170151 C98.8426624,140.678279 110.852557,149.657864 124.878725,152.927078 L122.608218,159.670394 L130.413087,159.670394 L129.987367,161.368012 C129.141895,164.651045 130.0741,168.136011 132.447083,170.563442 C132.851166,171.144959 132.851166,171.915324 132.447083,172.49684 L127.007326,181.92805 C126.48553,182.861628 126.349761,183.961343 126.628908,184.993194 C126.922701,186.023233 127.622319,186.8908 128.5683,187.398153 C129.175917,187.735657 129.859431,187.914119 130.554994,187.916869 C132.002905,187.918591 133.339921,187.144078 134.055359,185.889159 L139.447814,176.457948 C141.576822,172.793422 141.079222,168.176222 138.217956,165.046184 C137.82962,164.627916 137.670679,164.046934 137.792236,163.490034 L138.785583,159.71755 L144.65106,159.71755 L142.380553,152.974234 C147.530796,151.97309 152.473156,150.107494 156.996944,147.456976 C152.494426,150.126484 147.566992,152.008433 142.427855,153.02139 L144.698362,159.764706 L138.785583,159.764706 L137.792236,163.490034 C137.678756,164.032146 137.837651,164.595363 138.217956,164.999028 C141.087694,168.098772 141.622832,172.690548 139.542418,176.363636 L134.149964,185.794847 C133.423769,187.068259 132.071613,187.859072 130.602296,187.869713 C129.891491,187.868798 129.192228,187.69047 128.5683,187.350997 C127.614978,186.825328 126.912994,185.940424 126.61958,184.894489 C126.326166,183.848554 126.465843,182.728998 127.007326,181.786582 L132.447083,172.355372 C132.865354,171.778353 132.865354,170.998992 132.447083,170.421974 C130.174126,167.977503 129.317047,164.541982 130.176576,161.320856 L130.602296,159.670394 L122.608218,159.670394 L124.926027,152.879922 C118.046213,151.438674 111.579667,148.473255 106.005133,144.203209 C103.174644,142.039157 100.560842,139.607148 98.2002642,136.941176 C95.7817973,134.210563 93.6278364,131.25802 91.76716,128.122995 C86.3334803,132.063668 80.2269815,134.987647 73.7450081,136.752552 L78.759045,151.465241 L63.6223294,151.465241 L61.493729,160.094798 C61.1269564,161.445456 61.48454,162.889194 62.4397736,163.914439 C65.9920644,167.78163 66.6592525,173.482712 64.0953519,178.061254 L56.2904828,191.830822 C55.5885455,193.162685 54.2046803,193.997699 52.6955129,194 Z M133.86615,145.947983 C130.17711,145.945256 126.509503,145.388867 122.986636,144.297521 C119.50319,143.188952 116.191717,141.601817 113.147771,139.581915 C106.824734,135.362416 101.616062,129.684553 97.963753,123.030141 C112.395155,108.894481 120.394362,89.4864884 120.101199,69.3193972 C120.111936,62.2474408 119.173329,55.2058535 117.310367,48.38211 C122.420721,45.8334364 128.057374,44.5093642 133.771546,44.5152935 C157.422664,44.5152935 176.674963,67.2445308 176.674963,95.2080699 C176.6958,101.921736 175.559791,108.589119 173.316215,114.9193 C171.239409,120.804315 168.11473,126.267585 164.092279,131.04667 C160.339959,135.549528 155.704082,139.240349 150.469235,141.892562 C145.277932,144.513355 139.543231,145.886076 133.724243,145.900826 L133.86615,145.947983 Z M98.1056596,123.124453 C104.957576,136.658605 118.667544,145.390682 133.86615,145.900826 C145.691215,145.712535 156.812679,140.26412 164.186883,131.04667 C172.467471,120.962653 176.907201,108.285893 176.721976,95.2552261 C176.721976,67.3388431 157.517268,44.6096257 133.86615,44.6096257 C128.168363,44.614454 122.549523,45.9381455 117.452274,48.476422 C120.643178,60.3600458 121.047806,72.8163587 118.63483,84.8808945 C117.646158,89.8436541 116.156438,94.6939812 114.18842,99.3578027 C112.290485,103.840762 109.945106,108.122068 107.187689,112.137093 C104.548291,116.043111 101.486853,119.648555 98.0583574,122.888673 L98.1056596,123.124453 Z M67.3592061,143.59018 L53.1685354,143.59018 L54.7768114,138.874575 L65.7509301,138.874575 L67.3592061,143.59018 Z M53.1685354,143.59018 L67.3592061,143.59018 L65.7982323,138.874575 L54.5403002,138.874575 L53.1685354,143.59018 Z M144.22534,134.158969 C142.55238,134.141657 141.056446,133.116381 140.441161,131.565387 C140.009621,130.572553 140.009621,129.44592 140.441161,128.453087 C140.86469,127.464953 141.664291,126.684783 142.664366,126.283909 C148.02016,124.17672 152.056613,119.662865 153.54388,114.117647 C153.820778,113.069999 154.506657,112.176359 155.448586,111.635981 C156.390516,111.095503 157.510176,110.953417 158.557917,111.241128 C160.736856,111.85994 162.019215,114.102373 161.443354,116.286825 C159.295883,124.323448 153.45097,130.867719 145.691709,133.923189 C145.206044,134.0993 144.694711,134.194878 144.178038,134.206125 L144.22534,134.158969 Z M157.517268,111.099635 C156.799821,111.097123 156.095726,111.293007 155.483272,111.665532 C154.548828,112.197553 153.867307,113.080792 153.591182,114.117647 C152.103437,119.673422 148.069761,124.201655 142.711668,126.331065 C141.711593,126.731939 140.911992,127.512109 140.488463,128.500243 C140.070465,129.479469 140.070465,130.58616 140.488463,131.565387 C141.118615,133.097872 142.611288,134.102313 144.272642,134.111813 C144.791097,134.119309 145.305798,134.023101 145.786314,133.828877 C153.520671,130.777153 159.346675,124.2519 161.490656,116.239669 C162.034368,114.082312 160.75446,111.885999 158.60522,111.288284 C158.259873,111.242251 157.909917,111.242251 157.56457,111.288284 L157.517268,111.099635 Z M60.311173,130.905202 C31.5987156,130.905202 8.27871335,103.413223 8.27871335,69.6023335 C8.27871335,35.7914438 31.646018,8.29946531 60.311173,8.29946531 C70.7994839,8.35630738 80.9571192,11.9645092 89.1182347,18.5323286 C93.3304711,21.8528531 97.0422117,25.7595756 100.139656,30.1327175 C103.302957,34.6727861 105.862822,39.6023366 107.755316,44.7982498 C108.749629,47.4783012 109.571207,50.2189319 110.215032,53.0034031 C111.482787,58.3657179 112.117788,63.8573254 112.107254,69.3665532 C112.110169,73.8275817 111.698455,78.2792904 110.877263,82.66456 C110.097242,86.8667966 108.925368,90.9872543 107.376898,94.9722898 C105.886683,98.801812 104.033506,102.480922 101.842536,105.95965 C99.7219571,109.340497 97.2656455,112.500136 94.5106897,115.390861 C92.5101032,117.46566 90.342752,119.373975 88.0302833,121.096743 C80.0090801,127.192226 70.207834,130.504415 60.121964,130.527953 L60.311173,130.905202 Z M60.311173,8.29946531 C31.646018,8.29946531 8.27871335,35.7914438 8.27871335,69.6023335 C8.27871335,103.413223 31.5987158,130.905202 60.311173,130.905202 C70.3976199,130.885127 80.1999443,127.572574 88.2194923,121.473991 C90.5200438,119.582007 92.656233,117.499744 94.6052941,115.249392 C106.143656,102.759644 112.455771,86.3448785 112.249028,69.3665532 C112.257542,63.8574468 111.62257,58.3660879 110.356939,53.0034031 C109.710536,50.219612 108.889006,47.4791427 107.897222,44.7982498 C99.3355178,22.5405931 80.7457389,8.15799706 60.121964,8.15799706 L60.311173,8.29946531 Z M24.5506826,64.8867282 L23.7465446,64.8867282 C22.6843625,64.6654244 21.7508551,64.0393693 21.1449215,63.1419543 C20.532297,62.2453039 20.3104276,61.1393848 20.5299925,60.0768109 C23.946898,43.6236384 34.9349576,29.7344661 50.1884945,22.5877491 C51.1718502,22.1764259 52.2797841,22.1764259 53.2631398,22.5877491 C54.8471197,23.1279119 55.937424,24.580302 56.0105955,26.2476244 C56.0837669,27.9149467 55.1248631,29.4567126 53.5942554,30.1327175 C40.6767378,36.1049443 31.3353082,47.7936933 28.3821637,61.6801167 C27.9969314,63.5849089 26.3105549,64.9496193 24.3614736,64.934019 L24.5506826,64.8867282 Z M51.9386771,22.1632167 C51.3496807,22.1585664 50.7673281,22.2875782 50.2357967,22.5405931 C35.0025471,29.6773212 24.0310764,43.5502063 20.6245969,59.9824987 C20.2176291,62.1522658 21.6261464,64.2480336 23.7938468,64.6981041 L24.5979848,64.6981041 C26.3941296,64.6480852 27.9389378,63.4160579 28.3821637,61.6801167 C31.2579205,47.7552378 40.5476924,35.9954356 53.4523488,29.9440934 C55.4639202,29.0065249 56.3322154,26.6208142 55.3917404,24.6154594 C54.9499972,23.6443951 54.129972,22.8950283 53.1212332,22.5405931 C52.6862977,22.3598178 52.2206518,22.263775 51.7494683,22.2576568 L51.9386771,22.1632167 Z" id="形状" fill="#2C2C2C"></path>
        </g>
    </g>
</svg>